<?xml version="1.0" encoding="utf-8"?>
<!-- Generator: Adobe Illustrator 15.1.0, SVG Export Plug-In . SVG Version: 6.00 Build 0)  -->
<!DOCTYPE svg PUBLIC "-//W3C//DTD SVG 1.1//EN" "http://www.w3.org/Graphics/SVG/1.1/DTD/svg11.dtd">
<svg version="1.1" id="Layer_1" xmlns="http://www.w3.org/2000/svg" xmlns:xlink="http://www.w3.org/1999/xlink" x="0px" y="0px"
	 width="20px" height="6px" viewBox="0 0 20 6" enable-background="new 0 0 20 6" xml:space="preserve">
<path fill-rule="evenodd" clip-rule="evenodd" fill="#EC2527" d="M20,2.906C20,6,15.522,5.563,10,5.563C4.477,5.563,0,6,0,2.906
	C0,0,4.477,0.25,10,0.25C15.522,0.25,20,0,20,2.906z"/>
<g>
	<path fill-rule="evenodd" clip-rule="evenodd" fill="#FFFFFF" d="M4.15,1.759C3.876,2.021,3.726,1.57,3.289,1.561
		c-1.241-0.027-1.276,1.949,0,1.923C3.742,3.474,3.75,3.015,4.15,3.284c-0.032,0.149-0.231,0.28-0.332,0.332
		c-0.778,0.398-2.027-0.229-1.79-1.393C2.132,1.72,2.958,1.011,3.752,1.361C3.889,1.422,4.095,1.619,4.15,1.759z"/>
	<path fill-rule="evenodd" clip-rule="evenodd" fill="#FFFFFF" d="M5.012,2.224c0.403-0.077,0.665,0.087,0.796,0.265
		c0.15,0.206,0.177,0.813-0.066,1.06c-0.195,0.199-0.62,0.26-0.862,0.199C4.604,3.68,4.361,3.312,4.35,3.019
		C4.343,2.871,4.394,2.821,4.416,2.754C4.512,2.459,4.587,2.304,5.012,2.224z"/>
	<path fill-rule="evenodd" clip-rule="evenodd" fill="#FFFFFF" d="M9.586,3.616c-0.215,0.05,0.118,0.649-0.199,0.597
		C9.162,4.237,9.263,3.95,9.255,3.814c-0.025-0.421,0.019-1.047,0-1.524c0.432,0.008,0.889-0.242,1.259,0
		c0.182,0.119,0.346,0.458,0.332,0.729C10.824,3.452,10.208,4.034,9.586,3.616z"/>
	<path fill-rule="evenodd" clip-rule="evenodd" fill="#FFFFFF" d="M14.095,2.29c0,0.464,0,0.928,0,1.392
		c-0.512-0.105-0.988,0.272-1.393-0.133c-0.215-0.216-0.271-0.712-0.133-0.994c0.061-0.119,0.535-0.455,0.73-0.398
		C13.554,2.23,13.854,2.297,14.095,2.29z"/>
	<path fill-rule="evenodd" clip-rule="evenodd" fill="#FFFFFF" d="M17.077,2.29c0,0.464,0,0.928,0,1.392
		c-0.473-0.16-0.615,0.195-1.061,0.066c-0.32-0.093-0.52-0.473-0.529-0.729c-0.025-0.599,0.637-1.15,1.26-0.663
		C16.886,2.319,16.96,2.167,17.077,2.29z"/>
	<path fill-rule="evenodd" clip-rule="evenodd" fill="#FFFFFF" d="M8.725,3.748C8.291,3.779,8.641,3.053,8.526,2.754
		C8.444,2.542,8.181,2.386,7.93,2.555C7.602,2.713,7.999,3.598,7.664,3.748C7.242,3.595,7.563,3.037,7.465,2.754
		c-0.044-0.128-0.148-0.25-0.332-0.265c-0.563-0.047-0.3,0.684-0.464,1.259c-0.458,0.11-0.25-1.19-0.199-1.458
		c0.25-0.021,0.922-0.192,1.126,0.132c0.295-0.161,0.506-0.282,0.796-0.199C8.907,2.372,8.85,3.224,8.725,3.748z"/>
	<path fill-rule="evenodd" clip-rule="evenodd" fill="#FFFFFF" d="M11.312,2.224c0.256,0.137,0.6-0.128,0.861,0.066
		c0.025,0.318-0.305,0.141-0.398,0.199c-0.328,0.205-0.203,0.671-0.332,1.259c-0.266,0.058-0.182-0.301-0.197-0.53
		C11.218,2.856,11.229,2.495,11.312,2.224z"/>
	<path fill-rule="evenodd" clip-rule="evenodd" fill="#FFFFFF" d="M18.47,2.29c-0.018,0.291-0.461,0.158-0.596,0.331
		c-0.09,0.116-0.045,0.415-0.066,0.73C17.796,3.51,17.89,3.79,17.675,3.748c-0.24-0.03-0.127-0.433-0.133-0.663
		c-0.008-0.282,0.006-0.579,0-0.795C17.751,2.28,18.175,2.154,18.47,2.29z"/>
	<path fill-rule="evenodd" clip-rule="evenodd" fill="#FFFFFF" d="M14.692,3.417c0.227-0.028,0.377,0.02,0.332,0.265
		C14.858,3.839,14.606,3.708,14.692,3.417z"/>
	<path fill-rule="evenodd" clip-rule="evenodd" fill="#EC2527" d="M4.946,2.555c0.855-0.36,0.908,0.933,0.199,0.928
		C4.646,3.479,4.431,2.771,4.946,2.555z"/>
	<path fill-rule="evenodd" clip-rule="evenodd" fill="#EC2527" d="M10.449,2.621c0.476,0.899-0.876,1.146-0.928,0.398
		C9.493,2.629,9.899,2.263,10.449,2.621z"/>
	<path fill-rule="evenodd" clip-rule="evenodd" fill="#EC2527" d="M13.696,2.621c0.193,0.46-0.018,0.818-0.332,0.862
		C12.524,3.6,12.677,2,13.696,2.621z"/>
	<path fill-rule="evenodd" clip-rule="evenodd" fill="#EC2527" d="M16.083,2.555c0.855-0.356,0.908,0.928,0.199,0.928
		C15.784,3.483,15.536,2.783,16.083,2.555z"/>
</g>
</svg>
